<svg width="800" height="500" xmlns="http://www.w3.org/2000/svg">
  <rect width="800" height="500" fill="white"/>
  <defs>
    <style>
      .title { font: bold 20px sans-serif; }
      .subtitle { font: 14px sans-serif; fill: #666; }
      .label { font: 12px sans-serif; }
      .value { font: bold 14px sans-serif; }
      .euro { font: bold 16px sans-serif; }
      .java { fill: #007396; opacity: 0.7; }
      .fraiseql { fill: #e74c3c; opacity: 0.7; }
      .savings { fill: #27ae60; }
      .note { font: italic 11px sans-serif; fill: #666; }
    </style>
  </defs>

  <!-- Title -->
  <text x="400" y="30" text-anchor="middle" class="title">Projection pour une PME/Startup (100k req/jour)</text>
  <text x="400" y="50" text-anchor="middle" class="subtitle">Application SaaS B2B - 50 à 200 utilisateurs actifs</text>

  <!-- Cost comparison over 3 years -->
  <g transform="translate(100, 100)">
    <text x="0" y="-10" class="label" font-weight="bold">Coût Total de Possession (3 ans)</text>

    <!-- Development costs -->
    <rect x="0" y="0" width="200" height="40" class="java"/>
    <text x="10" y="25" class="label" fill="white">Développement</text>
    <text x="190" y="25" text-anchor="end" class="value" fill="white">23 000€</text>

    <rect x="0" y="45" width="88" height="40" class="java"/>
    <text x="10" y="70" class="label" fill="white">Infrastructure</text>
    <text x="78" y="70" text-anchor="end" class="value" fill="white">8 820€</text>

    <rect x="0" y="90" width="360" height="40" class="java"/>
    <text x="10" y="115" class="label" fill="white">Maintenance</text>
    <text x="350" y="115" text-anchor="end" class="value" fill="white">36 000€</text>

    <text x="0" y="150" class="euro">Total Java+ORM: 67 820€</text>

    <!-- FraiseQL costs -->
    <rect x="0" y="180" width="80" height="40" class="fraiseql"/>
    <text x="10" y="205" class="label" fill="white">Dév</text>
    <text x="70" y="205" text-anchor="end" class="value" fill="white">8 000€</text>

    <rect x="0" y="225" width="50" height="40" class="fraiseql"/>
    <text x="5" y="250" class="label" fill="white">Infra</text>
    <text x="45" y="250" text-anchor="end" class="value" fill="white">5 040€</text>

    <rect x="0" y="270" width="105" height="40" class="fraiseql"/>
    <text x="10" y="295" class="label" fill="white">Maintenance</text>
    <text x="95" y="295" text-anchor="end" class="value" fill="white">10 500€</text>

    <text x="0" y="330" class="euro">Total FraiseQL: 23 540€</text>

    <!-- Savings box -->
    <rect x="0" y="350" width="250" height="50" fill="#e8f5e9" stroke="#27ae60" stroke-width="2" rx="5"/>
    <text x="125" y="370" text-anchor="middle" class="label">Économie sur 3 ans</text>
    <text x="125" y="390" text-anchor="middle" class="euro savings">44 280€ (-65%)</text>
  </g>

  <!-- Annual breakdown -->
  <g transform="translate(450, 100)">
    <text x="0" y="-10" class="label" font-weight="bold">Coûts Annuels Infrastructure</text>

    <!-- Java costs -->
    <rect x="0" y="0" width="250" height="80" fill="#f8f9fa" stroke="#007396" stroke-width="2" rx="5"/>
    <text x="10" y="20" class="label" font-weight="bold" fill="#007396">Java+ORM</text>
    <text x="10" y="40" class="label">• EC2 (2×t3.medium): 1 440€</text>
    <text x="10" y="55" class="label">• RDS PostgreSQL: 1 200€</text>
    <text x="10" y="70" class="label">• Transfert/backups: 300€</text>
    <text x="240" y="70" text-anchor="end" class="value">2 940€/an</text>

    <!-- FraiseQL costs -->
    <rect x="0" y="90" width="250" height="80" fill="#f8f9fa" stroke="#e74c3c" stroke-width="2" rx="5"/>
    <text x="10" y="110" class="label" font-weight="bold" fill="#e74c3c">FraiseQL</text>
    <text x="10" y="130" class="label">• EC2 (1×t3.small): 180€</text>
    <text x="10" y="145" class="label">• RDS PostgreSQL: 1 200€</text>
    <text x="10" y="160" class="label">• Transfert/backups: 300€</text>
    <text x="240" y="160" text-anchor="end" class="value">1 680€/an</text>

    <!-- ROI -->
    <rect x="0" y="180" width="250" height="60" fill="#fff3cd" stroke="#ffc107" stroke-width="2" rx="5"/>
    <text x="125" y="200" text-anchor="middle" class="label" font-weight="bold">Retour sur Investissement</text>
    <text x="125" y="220" text-anchor="middle" class="value">4 mois</text>
    <text x="125" y="235" text-anchor="middle" class="note">(coût migration: 5 000€)</text>
  </g>

  <!-- Environmental impact -->
  <g transform="translate(100, 430)">
    <rect x="0" y="0" width="600" height="50" fill="#e3f2fd" stroke="#2196f3" stroke-width="2" rx="5"/>
    <text x="10" y="20" class="label">Impact CO₂ estimé (3 ans):</text>
    <text x="10" y="35" class="note">Java+ORM: 240 kg CO₂ | FraiseQL: 75 kg CO₂ | Réduction: -165 kg (-69%)</text>
    <text x="590" y="35" text-anchor="end" class="note">*Infrastructure cloud mutualisée</text>
  </g>

  <!-- Developer productivity -->
  <g transform="translate(450, 270)">
    <rect x="0" y="0" width="250" height="120" fill="#f0f0f0" stroke="#666" stroke-width="1" rx="5"/>
    <text x="125" y="20" text-anchor="middle" class="label" font-weight="bold">Productivité Développeur</text>
    <text x="10" y="40" class="label">• Temps de dév: -60%</text>
    <text x="10" y="55" class="label">• Debugging: -67%</text>
    <text x="10" y="70" class="label">• Tokens IA: -60%</text>
    <text x="10" y="85" class="label">• Maintenance: -71%</text>
    <text x="125" y="110" text-anchor="middle" class="value savings">170h/an économisées</text>
  </g>
</svg>
