<svg width="900" height="600" xmlns="http://www.w3.org/2000/svg">
  <rect width="900" height="600" fill="white"/>
  <defs>
    <style>
      .title { font: bold 22px sans-serif; }
      .subtitle { font: 16px sans-serif; fill: #666; }
      .label { font: 12px sans-serif; }
      .value { font: bold 14px sans-serif; }
      .phase { font: bold 14px sans-serif; fill: #333; }
      .java { fill: #007396; opacity: 0.7; }
      .fraiseql { fill: #e74c3c; opacity: 0.7; }
      .savings { fill: #27ae60; }
      .warning { font: italic 12px sans-serif; fill: #ff6b6b; }
    </style>
  </defs>

  <!-- Title -->
  <text x="450" y="30" text-anchor="middle" class="title">Projection d'Impact CO₂ - Cycle de Vie Complet (5 ans)</text>
  <text x="450" y="50" text-anchor="middle" class="subtitle">Estimations théoriques basées sur l'architecture</text>

  <!-- Lifecycle phases comparison -->
  <g transform="translate(80, 100)">
    <!-- Phase labels -->
    <text x="-60" y="40" class="phase">Conception</text>
    <text x="-60" y="90" class="phase">Fabrication</text>
    <text x="-60" y="140" class="phase">Exploitation</text>
    <text x="-60" y="190" class="phase">Refroidissement</text>
    <text x="-60" y="240" class="phase">Maintenance</text>
    <text x="-60" y="290" class="phase">Fin de vie</text>

    <!-- Java bars -->
    <rect x="0" y="20" width="90" height="30" class="java"/>
    <text x="95" y="40" class="value">0.45t</text>

    <rect x="0" y="70" width="128" height="30" class="java"/>
    <text x="133" y="90" class="value">0.64t</text>

    <rect x="0" y="120" width="300" height="30" class="java"/>
    <text x="305" y="140" class="value">1.50t</text>

    <rect x="0" y="170" width="150" height="30" class="java"/>
    <text x="155" y="190" class="value">0.75t</text>

    <rect x="0" y="220" width="60" height="30" class="java"/>
    <text x="65" y="240" class="value">0.30t</text>

    <rect x="0" y="270" width="24" height="30" class="java"/>
    <text x="29" y="290" class="value">0.12t</text>

    <!-- FraiseQL bars -->
    <rect x="0" y="320" width="36" height="30" class="fraiseql"/>
    <text x="41" y="340" class="value">0.18t</text>

    <rect x="0" y="370" width="42" height="30" class="fraiseql"/>
    <text x="47" y="390" class="value">0.21t</text>

    <rect x="0" y="420" width="96" height="30" class="fraiseql"/>
    <text x="101" y="440" class="value">0.48t</text>

    <rect x="0" y="470" width="48" height="30" class="fraiseql"/>
    <text x="53" y="490" class="value">0.24t</text>

    <rect x="0" y="520" width="24" height="30" class="fraiseql"/>
    <text x="29" y="540" class="value">0.12t</text>

    <rect x="0" y="570" width="8" height="30" class="fraiseql"/>
    <text x="13" y="590" class="value">0.04t</text>

    <!-- Legend -->
    <rect x="450" y="120" width="20" height="20" class="java"/>
    <text x="475" y="135" class="label">Java+ORM (Total: 3.76t CO₂)</text>
    <rect x="450" y="150" width="20" height="20" class="fraiseql"/>
    <text x="475" y="165" class="label">FraiseQL (Total: 1.27t CO₂)</text>

    <!-- Reduction indicator -->
    <rect x="450" y="200" width="200" height="60" fill="#e8f5e9" stroke="#27ae60" stroke-width="2" rx="5"/>
    <text x="550" y="225" text-anchor="middle" class="phase">Réduction estimée</text>
    <text x="550" y="250" text-anchor="middle" class="value savings" font-size="24">-66%</text>
  </g>

  <!-- Key assumptions box -->
  <g transform="translate(450, 300)">
    <rect x="0" y="0" width="350" height="120" fill="#fff3cd" stroke="#ffc107" stroke-width="2" rx="5"/>
    <text x="10" y="20" class="phase">Hypothèses principales :</text>
    <text x="10" y="40" class="label">• Application 10M req/jour</text>
    <text x="10" y="55" class="label">• Datacenter EU (230g CO₂/kWh)</text>
    <text x="10" y="70" class="label">• 5 développeurs, 6 mois conception</text>
    <text x="10" y="85" class="label">• Serveurs standard 320kg CO₂ fabrication</text>
    <text x="10" y="100" class="label">• Incertitude: ±30% sur les estimations</text>
  </g>

  <!-- Rebound effect warning -->
  <g transform="translate(50, 470)">
    <rect x="0" y="0" width="800" height="80" fill="#ffe0e0" stroke="#dc3545" stroke-width="2" rx="5"/>
    <text x="10" y="20" class="phase" fill="#dc3545">⚠️ Effet Rebond Non Comptabilisé</text>
    <text x="10" y="40" class="warning">• Performance accrue peut augmenter l'usage total</text>
    <text x="10" y="55" class="warning">• Économies peuvent financer plus de fonctionnalités</text>
    <text x="10" y="70" class="warning">• Impact réel dépendra de la gouvernance d'usage</text>
  </g>

  <!-- Token reduction impact -->
  <g transform="translate(450, 450)">
    <rect x="0" y="0" width="350" height="80" fill="#e3f2fd" stroke="#2196f3" stroke-width="2" rx="5"/>
    <text x="10" y="20" class="phase" fill="#1976d2">Impact IA en Conception</text>
    <text x="10" y="40" class="label">• Tokens LLM: 8,000 → 3,200 (-60%)</text>
    <text x="10" y="55" class="label">• Temps dev avec IA: 100h → 40h</text>
    <text x="10" y="70" class="label">• CO₂ phase conception: -270kg estimés</text>
  </g>
</svg>
