<svg width="600" height="400" xmlns="http://www.w3.org/2000/svg">
  <defs>
    <style>
      .title { font: bold 20px sans-serif; }
      .label { font: 14px sans-serif; }
      .value { font: bold 12px sans-serif; }
      .axis { stroke: #333; stroke-width: 2; }
      .grid { stroke: #ddd; stroke-width: 1; stroke-dasharray: 5,5; }
      .fraiseql { fill: #e74c3c; }
      .traditional { fill: #95a5a6; }
      .reduction { fill: #27ae60; font: bold 18px sans-serif; }
    </style>
  </defs>
  
  <!-- Title -->
  <text x="300" y="30" text-anchor="middle" class="title">Réduction de Tokens LLM (-60%)</text>
  
  <!-- Y-axis -->
  <line x1="80" y1="60" x2="80" y2="330" class="axis"/>
  
  <!-- X-axis -->
  <line x1="80" y1="330" x2="520" y2="330" class="axis"/>
  
  <!-- Grid lines -->
  <line x1="80" y1="300" x2="520" y2="300" class="grid"/>
  <text x="70" y="305" text-anchor="end" class="label">1k</text>
  
  <line x1="80" y1="270" x2="520" y2="270" class="grid"/>
  <text x="70" y="275" text-anchor="end" class="label">2k</text>
  
  <line x1="80" y1="240" x2="520" y2="240" class="grid"/>
  <text x="70" y="245" text-anchor="end" class="label">3k</text>
  
  <line x1="80" y1="210" x2="520" y2="210" class="grid"/>
  <text x="70" y="215" text-anchor="end" class="label">4k</text>
  
  <line x1="80" y1="180" x2="520" y2="180" class="grid"/>
  <text x="70" y="185" text-anchor="end" class="label">5k</text>
  
  <line x1="80" y1="150" x2="520" y2="150" class="grid"/>
  <text x="70" y="155" text-anchor="end" class="label">6k</text>
  
  <line x1="80" y1="120" x2="520" y2="120" class="grid"/>
  <text x="70" y="125" text-anchor="end" class="label">7k</text>
  
  <line x1="80" y1="90" x2="520" y2="90" class="grid"/>
  <text x="70" y="95" text-anchor="end" class="label">8k</text>
  
  <!-- Bars -->
  <!-- FraiseQL Total: 3200 tokens -->
  <rect x="140" y="234" width="100" height="96" class="fraiseql" opacity="0.8"/>
  <text x="190" y="225" text-anchor="middle" class="value">3,200</text>
  
  <!-- Traditional Total: 8000 tokens -->
  <rect x="280" y="90" width="100" height="240" class="traditional" opacity="0.8"/>
  <text x="330" y="80" text-anchor="middle" class="value">8,000</text>
  
  <!-- Breakdown arrows and labels -->
  <path d="M 240 260 L 260 260" stroke="#333" stroke-width="2" marker-end="url(#arrowhead)"/>
  <text x="250" y="255" text-anchor="middle" class="label" font-size="12">2 langages</text>
  <text x="250" y="270" text-anchor="middle" class="label" font-size="12">(Python + SQL)</text>
  
  <path d="M 380 200 L 400 200" stroke="#333" stroke-width="2" marker-end="url(#arrowhead)"/>
  <text x="410" y="195" class="label" font-size="12">+ DSLs</text>
  <text x="410" y="210" class="label" font-size="12">+ Resolvers</text>
  <text x="410" y="225" class="label" font-size="12">+ Boilerplate</text>
  
  <!-- Reduction badge -->
  <rect x="180" y="130" width="100" height="40" fill="#27ae60" rx="20" opacity="0.9"/>
  <text x="230" y="155" text-anchor="middle" class="reduction" fill="white">-60%</text>
  
  <!-- X-axis labels -->
  <text x="190" y="350" text-anchor="middle" class="label">FraiseQL</text>
  <text x="330" y="350" text-anchor="middle" class="label">Stack Traditionnelle</text>
  
  <!-- Y-axis title -->
  <text x="30" y="210" text-anchor="middle" class="label" transform="rotate(-90, 30, 210)">Tokens LLM</text>
  
  <!-- Arrow marker -->
  <defs>
    <marker id="arrowhead" markerWidth="10" markerHeight="7" refX="9" refY="3.5" orient="auto">
      <polygon points="0 0, 10 3.5, 0 7" fill="#333"/>
    </marker>
  </defs>
  
  <!-- Note -->
  <text x="300" y="380" text-anchor="middle" class="label" font-size="11" fill="#666">
    Basé sur une API blog complète (5 types, 10 queries, 5 mutations)
  </text>
</svg>